<svg width="113" height="200" viewBox="0 0 113 200" fill="none" xmlns="http://www.w3.org/2000/svg">
<path d="M46.9687 15.625C48.6937 15.625 50.0937 14.2281 50.0937 12.5C50.0937 10.7719 48.6937 9.375 46.9687 9.375H46.9374C45.2124 9.375 43.8312 10.7719 43.8312 12.5C43.8312 14.2281 45.2437 15.625 46.9687 15.625Z" fill="white"/>
<path d="M56.25 15.625H65.625C67.3531 15.625 68.75 14.2281 68.75 12.5C68.75 10.7719 67.3531 9.375 65.625 9.375H56.25C54.5219 9.375 53.125 10.7719 53.125 12.5C53.125 14.2281 54.5219 15.625 56.25 15.625Z" fill="white"/>
<path d="M112.5 178.125V18.7562C112.5 8.42812 104.109 0.03125 93.7906 0.009375C93.7781 0.009375 93.7656 0 93.75 0H18.75C8.40937 0 0 8.40937 0 18.75V178.125C0 190.184 9.81563 200 21.875 200H90.625C102.684 200 112.5 190.184 112.5 178.125ZM106.25 156.25H6.25V25.0062H106.25V156.25ZM6.25 162.5H56.25H106.25V165.625C106.25 174.241 99.2406 181.25 90.625 181.25H56.25H21.875C13.2594 181.25 6.25 174.241 6.25 165.625V162.5ZM18.75 6.25H93.7188C93.7313 6.25 93.7375 6.25625 93.75 6.25625C100.644 6.25625 106.25 11.8625 106.25 18.7562H6.25V18.75C6.25 11.8562 11.8562 6.25 18.75 6.25ZM90.625 193.75H21.875C14.3188 193.75 8.00625 188.356 6.5625 181.219C10.5125 185.097 15.9187 187.5 21.875 187.5H90.625C96.5813 187.5 101.988 185.097 105.938 181.219C104.494 188.356 98.1812 193.75 90.625 193.75Z" fill="white"/>
<path d="M46.875 171.875C46.875 177.044 51.0812 181.25 56.25 181.25C61.4188 181.25 65.625 177.044 65.625 171.875C65.625 166.706 61.4188 162.5 56.25 162.5C51.0812 162.5 46.875 166.706 46.875 171.875ZM56.25 168.75C57.975 168.75 59.375 170.15 59.375 171.875C59.375 173.6 57.975 175 56.25 175C54.525 175 53.125 173.6 53.125 171.875C53.125 170.15 54.525 168.75 56.25 168.75Z" fill="white"/>
<path d="M28.125 134.369H84.375C92.9906 134.369 100 127.359 100 118.744V62.4937C100 53.8781 92.9906 46.8687 84.375 46.8687H28.125C19.5094 46.8687 12.5 53.8781 12.5 62.4937V118.744C12.5 127.359 19.5094 134.369 28.125 134.369ZM18.75 62.4937C18.75 57.325 22.9562 53.1187 28.125 53.1187H84.375C89.5438 53.1187 93.75 57.325 93.75 62.4937V118.744C93.75 123.912 89.5438 128.119 84.375 128.119H28.125C22.9562 128.119 18.75 123.912 18.75 118.744V62.4937Z" fill="white"/>
<path d="M43.7531 100.006C44.5531 100.006 45.3531 99.7 45.9625 99.0906C47.1844 97.8688 47.1844 95.8938 45.9625 94.6719L41.925 90.6344L45.9625 86.5938C47.1844 85.3719 47.1844 83.3969 45.9625 82.175C44.7406 80.9531 42.7657 80.9531 41.5438 82.175L35.2969 88.425C34.075 89.6469 34.075 91.6219 35.2969 92.8438L41.5438 99.0906C42.1532 99.7 42.9531 100.006 43.7531 100.006Z" fill="white"/>
<path d="M66.5594 99.0906C67.1687 99.7 67.9687 100.006 68.7687 100.006C69.5687 100.006 70.3687 99.7 70.9781 99.0906L77.225 92.8438C78.4469 91.6219 78.4469 89.6469 77.225 88.425L70.9781 82.175C69.7562 80.9531 67.7812 80.9531 66.5594 82.175C65.3375 83.3969 65.3375 85.3719 66.5594 86.5938L70.5968 90.6344L66.5594 94.6719C65.3375 95.8938 65.3375 97.8688 66.5594 99.0906Z" fill="white"/>
<path d="M52.1468 102.972C52.4749 103.081 52.8093 103.134 53.1343 103.134C54.4437 103.134 55.6656 102.306 56.0999 100.997L62.3437 82.2469C62.8906 80.6094 62.0062 78.8375 60.3687 78.2938C58.7218 77.7469 56.9593 78.6313 56.4156 80.2688L50.1687 99.0188C49.6249 100.659 50.5093 102.428 52.1468 102.972Z" fill="white"/>
<path d="M56.25 125C75.2031 125 90.625 109.578 90.625 90.625C90.625 71.6719 75.2031 56.25 56.25 56.25C37.2969 56.25 21.875 71.6719 21.875 90.625C21.875 109.578 37.2969 125 56.25 125ZM56.25 62.5C71.7594 62.5 84.375 75.1156 84.375 90.625C84.375 106.134 71.7594 118.75 56.25 118.75C40.7406 118.75 28.125 106.134 28.125 90.625C28.125 75.1156 40.7406 62.5 56.25 62.5Z" fill="white"/>
</svg>
