<svg width="400" height="358" viewBox="0 0 400 358" fill="none" xmlns="http://www.w3.org/2000/svg">
<path d="M257.175 216.239C270.078 191.768 278.532 165.516 281.646 137.93C282.091 135.705 280.312 133.481 278.087 133.036C277.197 133.036 276.307 132.591 275.862 132.591C270.078 131.701 264.294 129.921 258.51 128.586H258.065L254.06 127.252C236.263 121.912 218.91 114.793 202.892 105.45C201.557 104.56 200.223 104.56 198.888 105.45C182.87 114.793 165.517 121.912 147.72 126.807L143.715 128.142H143.27C137.486 129.476 131.702 130.811 125.918 132.146C125.028 132.146 124.138 132.591 123.248 132.591C121.023 133.036 119.689 135.261 119.689 137.485C123.248 164.626 131.257 191.323 144.16 215.794C157.508 241.156 175.751 263.403 197.553 281.645C199.333 282.98 201.557 282.98 202.892 281.645C225.584 263.848 243.827 241.156 257.175 216.239ZM201.112 273.192C181.09 255.839 164.627 235.372 152.614 212.235C141.046 189.988 133.037 165.961 129.477 141.045C134.817 140.155 140.156 138.82 145.495 137.04H145.94L150.389 135.705C168.187 130.366 185.095 123.247 201.112 114.348C217.13 123.247 234.483 130.366 251.835 135.705L256.285 137.04H256.73C262.069 138.375 267.408 139.71 272.748 141.045C269.188 165.961 261.179 189.988 249.611 212.235C237.597 235.372 221.135 256.284 201.112 273.192Z" fill="white"/>
<path d="M188.209 224.248C188.209 231.812 193.993 238.042 201.112 238.042C208.231 238.042 214.016 231.812 214.016 224.248V196.662C220.69 191.768 224.694 183.759 224.694 175.75C224.694 161.957 214.016 150.389 201.112 150.389C188.209 150.389 177.531 161.512 177.531 175.75C177.531 184.204 181.535 192.213 188.209 196.662V224.248ZM185.985 175.75C185.985 166.406 192.659 158.842 201.112 158.842C209.566 158.842 216.24 166.406 216.24 175.75C216.24 181.979 213.126 187.763 207.787 190.878C206.452 191.768 205.562 193.103 205.562 194.438V224.248C205.562 226.918 203.337 229.588 201.112 229.588C198.888 229.588 196.663 227.363 196.663 224.248V194.438C196.663 193.103 195.773 191.323 194.438 190.878C189.099 187.763 185.985 181.979 185.985 175.75Z" fill="white"/>
<path d="M380.423 173.081C370.634 173.081 362.625 180.645 360.845 190.434H302.113C307.008 174.861 310.567 158.843 312.792 142.825H347.052C349.277 142.825 351.502 141.046 351.502 138.376V74.3048C360.845 72.525 367.519 63.6263 367.519 53.3927C367.519 41.8242 358.621 32.4805 347.497 32.4805C336.374 32.4805 327.475 41.8242 327.475 53.3927C327.475 63.1813 334.149 71.6351 342.603 73.8598V134.372H313.682C314.572 125.473 315.017 116.574 315.017 107.23V106.785C315.017 104.561 313.237 102.781 311.012 102.336C301.224 101.891 291.435 100.556 281.646 98.7764C281.201 98.7764 281.201 98.7764 280.756 98.7764V86.7631C280.756 63.6263 272.303 41.8243 257.175 25.3615C242.047 8.89878 221.58 0 200.222 0C155.729 0 119.689 38.7097 119.689 86.7631V99.2214C110.345 101.001 100.556 102.336 91.2125 102.781C88.9878 102.781 87.208 104.561 87.208 107.23V107.675C87.208 116.574 87.6529 125.918 88.5428 134.816H59.6218V73.8598C68.5206 71.6351 74.7497 63.1813 74.7497 53.3927C74.7497 41.8242 65.8509 32.4805 54.7275 32.4805C43.604 32.4805 34.7052 41.8242 34.7052 53.3927C34.7052 63.6263 41.8242 72.0801 50.723 74.3048V138.821C50.723 141.046 52.5028 143.27 55.1724 143.27H89.4327C91.6574 159.288 95.2169 175.306 100.111 190.879H39.1546C36.9299 181.535 29.366 174.416 20.0222 174.416C8.89878 173.971 0 183.76 0 195.328C0 206.897 8.89878 216.24 20.0222 216.24C29.8109 216.24 37.8198 208.676 39.5996 198.888H103.226C107.23 210.456 112.125 221.58 117.909 232.703C120.578 237.152 122.803 242.047 125.473 246.496H55.1724C52.9477 246.496 50.723 248.276 50.723 250.946V315.907C41.8242 318.131 35.5951 326.585 35.5951 336.374C35.5951 347.942 44.4939 357.286 55.6174 357.286C66.7408 357.286 75.6396 347.942 75.6396 336.374C75.6396 326.14 68.5206 317.686 59.6218 315.462V254.95H131.257C149.054 282.091 172.191 305.228 198.888 323.026C200.222 323.915 202.002 323.915 203.782 323.026C230.478 304.783 253.615 281.646 271.413 254.95H342.603V315.462C333.704 317.686 327.475 326.14 327.475 335.929C327.475 347.497 336.374 356.841 347.497 356.841C358.621 356.841 367.519 347.497 367.519 335.929C367.519 325.695 360.4 317.241 351.502 315.017V250.946C351.502 248.721 349.722 246.496 347.052 246.496H276.752C279.422 242.047 282.091 237.597 284.316 232.703C290.1 221.58 294.994 210.456 298.999 198.888H360.845C363.07 208.231 370.634 215.35 379.978 215.35C391.101 215.35 400 206.007 400 194.438C400 182.87 391.546 173.081 380.423 173.081ZM347.497 40.9344C353.726 40.9344 359.066 46.7186 359.066 53.3927C359.066 60.0667 354.171 65.851 347.497 65.851C340.823 65.851 335.929 60.0667 335.929 53.3927C335.929 46.7186 341.268 40.9344 347.497 40.9344ZM54.7275 40.9344C60.9566 40.9344 66.2959 46.7186 66.2959 53.3927C66.2959 60.0667 61.4016 65.851 54.7275 65.851C48.0534 65.851 43.1591 60.0667 43.1591 53.3927C43.1591 46.7186 48.4983 40.9344 54.7275 40.9344ZM20.0222 207.786C13.7931 207.786 8.45384 202.002 8.45384 195.328C8.45384 188.654 13.3482 182.87 20.0222 182.87C26.6963 182.87 31.5907 188.654 31.5907 195.328C31.5907 202.002 26.2514 207.786 20.0222 207.786ZM55.6174 348.832C49.3882 348.832 44.0489 343.048 44.0489 336.374C44.0489 329.7 48.9433 323.915 55.6174 323.915C62.2914 323.915 67.1858 329.7 67.1858 336.374C67.1858 343.048 61.8465 348.832 55.6174 348.832ZM335.929 336.374C335.929 329.255 340.823 323.915 347.497 323.915C354.171 323.915 359.066 329.7 359.066 336.374C359.066 343.048 354.171 348.832 347.497 348.832C340.823 348.832 335.929 343.048 335.929 336.374ZM201.112 314.572C136.151 270.078 96.9967 194.438 95.6618 111.235C104.561 110.79 113.459 109.455 122.358 107.675C128.142 106.785 133.927 105.006 139.266 103.671L141.935 102.781C162.848 96.5517 182.87 87.653 201.112 75.6396C219.355 87.653 239.377 96.5517 260.289 102.781L262.959 103.671C268.743 105.451 274.527 106.785 279.867 107.675C288.765 109.455 297.664 110.345 306.563 111.235C305.228 194.438 266.073 270.078 201.112 314.572ZM200.222 8.89878C219.355 8.89878 237.597 16.9077 250.945 31.5907C264.739 46.2736 272.303 66.2959 272.303 87.208V97.4416C270.078 96.9967 267.408 96.1068 265.184 95.6619C265.184 95.6619 265.184 95.6619 264.739 95.6619L262.514 94.772C261.179 94.327 259.844 93.8821 258.509 93.4372V87.208C258.509 52.5028 232.258 24.4716 200.222 24.4716C168.187 24.4716 141.935 52.5028 141.935 87.208V94.327C141.046 94.772 140.601 94.772 139.711 95.2169L137.486 96.1068C137.486 96.1068 137.486 96.1068 137.041 96.1068C133.927 96.9967 131.257 97.8865 128.142 98.3315V87.653C128.142 44.0489 160.623 8.89878 200.222 8.89878ZM250.056 90.7675C233.593 84.9833 218.02 76.9744 203.782 67.1858C202.447 66.2959 200.667 66.2959 198.888 67.1858C183.76 77.4194 167.742 85.4283 150.834 91.2125V87.208C150.834 57.3971 173.081 32.9255 200.667 32.9255C228.254 32.9255 250.501 57.3971 250.501 87.208V90.7675H250.056ZM368.854 194.438C368.854 187.319 373.749 181.98 380.423 181.98C386.652 181.98 391.991 187.764 391.991 194.438C391.991 201.557 387.097 206.897 380.423 206.897C373.749 206.897 368.854 201.112 368.854 194.438Z" fill="white"/>
</svg>
