<svg width="450" height="450" viewBox="0 0 450 450" fill="none" xmlns="http://www.w3.org/2000/svg">
<path d="M309.302 294.663C316.408 287.557 317.78 276.569 312.561 267.786C311.378 265.798 311.211 263.315 312.184 260.993C313.077 258.844 314.942 257.226 317.33 256.616C327.07 254.148 333.871 245.402 333.871 235.357V214.643C333.871 204.598 327.07 195.859 317.17 193.333C314.949 192.767 313.084 191.156 312.133 188.855C311.219 186.685 311.378 184.202 312.648 182.069C317.78 173.439 316.408 162.443 309.302 155.337L294.656 140.69C287.55 133.585 276.569 132.22 267.779 137.431C265.798 138.622 263.301 138.767 260.985 137.802C258.837 136.909 257.219 135.044 256.609 132.656C254.141 122.93 245.402 116.129 235.357 116.129H214.643C204.598 116.129 195.859 122.93 193.333 132.83C192.767 135.051 191.148 136.916 188.862 137.867C186.692 138.781 184.195 138.622 182.061 137.352C173.439 132.213 162.435 133.592 155.33 140.69L140.683 155.337C133.577 162.443 132.206 173.431 137.424 182.214C138.607 184.202 138.774 186.685 137.794 189.015C136.902 191.156 135.036 192.774 132.656 193.384C122.93 195.852 116.129 204.598 116.129 214.643V235.357C116.129 245.402 122.93 254.141 132.83 256.667C135.058 257.233 136.916 258.852 137.867 261.145C138.781 263.315 138.622 265.798 137.352 267.931C132.22 276.561 133.592 287.557 140.698 294.663L155.344 309.31C162.45 316.415 173.446 317.787 182.221 312.569C184.202 311.371 186.706 311.226 189.015 312.198C191.163 313.091 192.781 314.956 193.391 317.344C195.859 327.07 204.598 333.871 214.643 333.871H235.357C245.402 333.871 254.141 327.07 256.667 317.17C257.233 314.949 258.852 313.084 261.138 312.133C263.308 311.219 265.805 311.378 267.939 312.648C276.561 317.787 287.564 316.408 294.67 309.31L309.302 294.663ZM275.211 300.092C269.281 296.557 261.922 296.064 255.397 298.8C249.068 301.442 244.285 306.98 242.557 313.759C241.715 317.054 238.754 319.355 235.357 319.355H214.643C211.246 319.355 208.285 317.054 207.399 313.599C205.723 306.973 200.932 301.442 194.48 298.742C191.773 297.61 188.884 297.044 186.01 297.044C182.083 297.044 178.149 298.096 174.658 300.179C171.733 301.914 168.017 301.456 165.607 299.047L150.96 284.4C148.558 281.99 148.086 278.274 149.908 275.211C153.435 269.281 153.944 261.915 151.207 255.404C148.558 249.068 143.02 244.285 136.234 242.557C132.946 241.715 130.645 238.761 130.645 235.357V214.643C130.645 211.246 132.946 208.285 136.401 207.406C143.027 205.723 148.565 200.932 151.251 194.494C153.944 188.093 153.443 180.733 149.828 174.651C148.094 171.733 148.558 168.01 150.96 165.607L165.607 150.96C168.024 148.558 171.755 148.108 174.796 149.915C180.726 153.443 188.085 153.944 194.61 151.207C200.94 148.565 205.723 143.027 207.45 136.248C208.285 132.946 211.246 130.645 214.643 130.645H235.357C238.754 130.645 241.715 132.946 242.601 136.401C244.277 143.027 249.068 148.558 255.52 151.258C261.922 153.944 269.289 153.435 275.342 149.828C278.267 148.094 281.998 148.558 284.393 150.96L299.04 165.607C301.442 168.017 301.914 171.733 300.092 174.796C296.565 180.726 296.056 188.093 298.8 194.603C301.435 200.94 306.973 205.73 313.766 207.457C317.054 208.285 319.355 211.239 319.355 214.643V235.357C319.355 238.754 317.054 241.715 313.599 242.594C306.98 244.27 301.442 249.06 298.749 255.506C296.056 261.907 296.557 269.267 300.172 275.349C301.906 278.267 301.442 281.99 299.04 284.393L284.393 299.04C281.99 301.449 278.26 301.906 275.211 300.092Z" fill="white"/>
<path d="M225 159.677C188.978 159.677 159.677 188.985 159.677 225C159.677 261.015 188.978 290.323 225 290.323C261.022 290.323 290.323 261.015 290.323 225C290.323 188.985 261.022 159.677 225 159.677ZM225 275.806C196.991 275.806 174.194 253.016 174.194 225C174.194 196.984 196.991 174.194 225 174.194C253.009 174.194 275.806 196.984 275.806 225C275.806 253.016 253.009 275.806 225 275.806Z" fill="white"/>
<path d="M225 188.71C204.99 188.71 188.71 204.99 188.71 225C188.71 245.011 204.99 261.29 225 261.29C245.011 261.29 261.29 245.011 261.29 225C261.29 204.99 245.011 188.71 225 188.71ZM225 246.774C212.995 246.774 203.226 237.005 203.226 225C203.226 212.995 212.995 203.226 225 203.226C237.005 203.226 246.774 212.995 246.774 225C246.774 237.005 237.005 246.774 225 246.774Z" fill="white"/>
<path d="M406.452 435.484H391.935V362.903H348.387V435.484H333.871V333.871H290.323V450H450V304.839H406.452V435.484ZM319.355 435.484H304.839V348.387H319.355V435.484ZM377.419 435.484H362.903V377.419H377.419V435.484ZM420.968 319.355H435.484V435.484H420.968V319.355Z" fill="white"/>
<path d="M4.18792 126.457C7.08389 129.36 10.8581 130.631 15.2202 130.631C28.9016 130.631 48.4258 118.103 65.3226 104.219C82.2266 118.103 101.744 130.631 115.425 130.631C119.787 130.631 123.554 129.36 126.457 126.457C138.477 114.431 122.523 87.6048 104.219 65.3225C122.523 43.0403 138.477 16.2072 126.457 4.18786C114.452 -7.84601 87.6121 8.11447 65.3226 26.4266C43.0258 8.12173 16.1855 -7.83875 4.18792 4.18786C-7.83143 16.2072 8.12179 43.0403 26.4266 65.3225C8.12179 87.6048 -7.83143 114.438 4.18792 126.457ZM116.456 115.998C112.631 117.631 97.0694 111.135 76.4274 94.5871C79.7661 91.5387 82.9162 88.5411 85.7323 85.7322C88.5557 82.9088 91.5532 79.7806 94.6016 76.4346C111.165 97.0403 117.748 112.514 116.456 115.998ZM114.968 14.4C115.411 14.4 115.788 14.4435 116.115 14.5306C117.269 18.8854 110.7 34.1492 94.6016 54.2177C91.546 50.8717 88.5484 47.7363 85.7323 44.9201C82.9162 42.104 79.7952 39.1137 76.4492 36.0653C95.0008 21.1935 109.473 14.4 114.968 14.4ZM65.3226 45.5371C68.625 48.5274 72.0073 51.7209 75.4694 55.183C78.9315 58.6451 82.1178 62.0201 85.1081 65.3298C82.1178 68.6322 78.9242 72.0145 75.4694 75.4693C72.0073 78.9241 68.6323 82.1104 65.3226 85.1008C62.0202 82.1104 58.6379 78.9241 55.1831 75.4693C51.721 72.0072 48.5347 68.6322 45.5444 65.3225C48.5347 62.0201 51.721 58.6379 55.1831 55.1758C58.6379 51.7209 62.0202 48.5274 65.3226 45.5371ZM14.5307 14.5306C18.9508 13.3258 34.1782 19.9306 54.225 36.0363C50.8718 39.0919 47.7363 42.0967 44.9129 44.9129C42.0968 47.7363 39.0992 50.8645 36.0436 54.2177C19.9452 34.1419 13.3766 18.8854 14.5307 14.5306ZM36.0508 76.4346C39.1065 79.7806 42.0968 82.9088 44.9129 85.725C47.7291 88.5411 50.8791 91.5387 54.2178 94.5798C33.5903 111.143 18.1089 117.697 14.6468 116.456C13.0065 112.623 19.5024 97.0693 36.0508 76.4346Z" fill="white"/>
<path d="M65.3226 72.5806C69.3311 72.5806 72.5806 69.3311 72.5806 65.3226C72.5806 61.3141 69.3311 58.0645 65.3226 58.0645C61.3141 58.0645 58.0645 61.3141 58.0645 65.3226C58.0645 69.3311 61.3141 72.5806 65.3226 72.5806Z" fill="white"/>
<path d="M428.226 0H355.645C343.64 0 333.871 9.76935 333.871 21.7742V123.387C333.871 135.392 343.64 145.161 355.645 145.161H428.226C440.231 145.161 450 135.392 450 123.387V21.7742C450 9.76935 440.231 0 428.226 0ZM435.484 123.387C435.484 127.386 432.232 130.645 428.226 130.645H355.645C351.639 130.645 348.387 127.386 348.387 123.387V101.613H435.484V123.387ZM435.484 87.0968H348.387V58.0645H435.484V87.0968ZM435.484 43.5484H348.387V21.7742C348.387 17.775 351.639 14.5161 355.645 14.5161H428.226C432.232 14.5161 435.484 17.775 435.484 21.7742V43.5484Z" fill="white"/>
<path d="M94.3548 304.839H21.7742C9.76935 304.839 0 314.608 0 326.613V428.226C0 440.231 9.76935 450 21.7742 450H94.3548C106.36 450 116.129 440.231 116.129 428.226V326.613C116.129 314.608 106.36 304.839 94.3548 304.839ZM101.613 428.226C101.613 432.225 98.3613 435.484 94.3548 435.484H21.7742C17.7677 435.484 14.5161 432.225 14.5161 428.226V406.452H101.613V428.226ZM101.613 391.936H14.5161V362.903H101.613V391.936ZM101.613 348.387H14.5161V326.613C14.5161 322.614 17.7677 319.355 21.7742 319.355H94.3548C98.3613 319.355 101.613 322.614 101.613 326.613V348.387Z" fill="white"/>
<path d="M188.71 65.3226H174.194V79.8387H188.71V65.3226Z" fill="white"/>
<path d="M159.677 65.3226H145.161V79.8387H159.677V65.3226Z" fill="white"/>
<path d="M319.355 65.3226H203.226V79.8387H319.355V65.3226Z" fill="white"/>
<path d="M246.774 377.419H232.258V391.936H246.774V377.419Z" fill="white"/>
<path d="M275.806 377.419H261.29V391.936H275.806V377.419Z" fill="white"/>
<path d="M217.742 377.419H130.645V391.936H217.742V377.419Z" fill="white"/>
<path d="M65.3226 246.774H50.8065V261.29H65.3226V246.774Z" fill="white"/>
<path d="M65.3226 275.806H50.8065V290.323H65.3226V275.806Z" fill="white"/>
<path d="M65.3226 145.161H50.8065V232.258H65.3226V145.161Z" fill="white"/>
<path d="M399.194 188.71H384.677V203.226H399.194V188.71Z" fill="white"/>
<path d="M399.194 159.677H384.677V174.194H399.194V159.677Z" fill="white"/>
<path d="M399.194 217.742H384.677V290.323H399.194V217.742Z" fill="white"/>
</svg>
