<svg width="400" height="400" viewBox="0 0 400 400" fill="none" xmlns="http://www.w3.org/2000/svg">
<path d="M123.428 271.44C102.949 250.961 69.7361 250.961 49.2566 271.44C28.7771 291.92 28.7771 325.132 49.2566 345.612C69.7361 366.091 102.949 366.091 123.428 345.612C143.908 325.221 143.908 292.009 123.428 271.44ZM111.14 327.269C108.825 329.05 105.442 328.605 103.661 326.29C101.88 323.975 102.325 320.591 104.64 318.81L117.907 308.659L104.64 298.42C102.325 296.639 101.88 293.255 103.661 290.94C105.442 288.625 108.825 288.18 111.14 289.961L129.928 304.385C132.688 306.522 132.866 310.707 130.017 312.933L111.14 327.269ZM91.1951 289.427C92.6197 286.844 95.9143 285.954 98.4965 287.468C101.079 288.892 101.88 292.187 100.455 294.769L81.4896 327.714C80.0649 330.297 76.7704 331.187 74.2772 329.673C71.695 328.249 70.8046 324.954 72.3183 322.372L91.1951 289.427ZM67.9553 318.721C70.2703 320.502 70.7155 323.886 68.9347 326.201C67.1539 328.516 63.7703 328.961 61.4552 327.18L42.6675 312.844C39.8182 310.618 39.9072 306.433 42.7566 304.296L61.5443 289.872C63.8594 288.091 67.2429 288.536 69.0238 290.851C70.8046 293.166 70.3594 296.55 68.0443 298.331L54.7771 308.57L67.9553 318.721ZM237.134 159.693C216.654 139.214 183.442 139.214 162.962 159.693C142.483 180.173 142.483 213.385 162.962 233.865C183.442 254.344 216.654 254.344 237.134 233.865C257.613 213.385 257.613 180.173 237.134 159.693ZM355.737 55.3368L348.436 59.5217C346.299 60.9464 343.538 60.6792 341.668 58.8094C337.127 54.1792 330.538 50.0833 324.127 48.5696C321.723 48.1244 319.853 45.8984 319.853 43.3162V34.5901H309.792V43.3162C309.792 45.7203 308.189 47.8573 305.785 48.4806C298.929 50.1724 292.874 53.734 287.976 58.7203C286.285 60.4121 283.703 60.8573 281.476 59.6107L273.908 55.2477L268.833 64.0628L275.956 68.1587C278.271 69.2272 279.607 71.8985 278.805 74.4807C276.846 81.1588 276.846 88.3711 278.805 95.0492C279.429 97.3643 278.538 99.8574 276.312 101.104L268.833 105.467L273.908 114.282L281.209 110.097C283.257 108.673 286.107 108.94 287.976 110.81C292.518 115.44 299.107 119.536 305.429 121.049C307.922 121.495 309.703 123.721 309.703 126.303V135.029H319.764V126.303C319.764 123.899 321.367 121.762 323.771 121.138C330.538 119.447 336.682 115.885 341.579 110.899C343.271 109.207 345.853 108.762 348.079 110.008L355.648 114.371L360.723 105.645L353.422 101.46C351.196 100.392 349.949 97.7205 350.662 95.2273C352.531 88.5492 352.531 81.3368 350.662 74.6587C350.038 72.3437 350.929 69.8505 353.066 68.6039L360.545 64.2409L355.737 55.3368ZM208.819 172.515C200.983 164.68 187.538 170.2 187.538 181.33C187.538 186.139 190.476 190.769 194.661 192.639C196.62 193.44 198.045 195.31 198.045 197.625V225.584H202.052V197.625C202.052 195.577 203.209 193.618 205.168 192.728C213.093 189.077 214.963 178.659 208.819 172.515ZM200.004 158.18C218.346 158.18 229.387 178.481 219.504 193.885C217.723 196.645 215.408 198.96 212.737 200.741V226.474C212.737 231.906 208.373 236.269 202.942 236.269C197.867 236.269 193.771 236.981 190.209 233.419C188.428 231.639 187.36 229.146 187.36 226.474V200.741C175.161 192.728 173.291 175.454 183.709 165.036C187.805 160.762 193.593 158.18 200.004 158.18ZM324.572 75.193C316.025 66.645 301.333 72.6998 301.333 84.8095C301.333 96.9191 316.025 102.974 324.572 94.4259C329.826 89.0834 329.826 80.4464 324.572 75.193ZM314.867 60.5012C336.504 60.5012 347.367 86.7684 332.052 101.994C316.826 117.221 290.559 106.357 290.559 84.8095C290.559 71.3642 301.422 60.5012 314.867 60.5012ZM5.71535 334.125C2.06466 334.392 -0.784665 331.009 0.19479 327.447L2.59891 318.454C3.6674 314.536 8.8318 312.844 11.9482 316.584L17.6469 322.906C20.051 325.577 19.1606 329.762 15.9551 331.276C29.4004 373.125 76.5032 394.584 117.106 376.42C119.777 375.173 122.894 376.42 124.14 379.091C125.298 381.762 124.14 384.879 121.469 386.125C74.9895 406.872 20.9414 382.386 5.71535 334.125ZM150.229 365.112C165.99 376.242 183.887 388.351 200.004 399.571C207.572 394.317 214.072 389.865 220.305 385.502C311.038 322.995 348.257 297.262 357.696 159.782C353.066 162.186 348.079 164.591 341.49 166.906C339.086 197.358 334.189 233.509 323.148 261.557C309.346 296.639 287.442 317.296 257.97 339.379C242.209 351.132 226.271 362.084 210.332 373.036C198.846 380.872 201.428 380.961 189.853 373.036C180.147 366.358 169.73 359.235 159.757 352.201C167.771 338.844 171.777 323.796 171.777 308.659C171.867 287.022 163.586 265.296 147.291 248.735H147.202C121.469 220.687 120.49 178.392 144.976 149.721C146.935 147.495 146.668 144.111 144.353 142.241C142.127 140.282 138.743 140.638 136.873 142.864C108.825 175.81 109.983 224.515 139.366 256.125C139.455 256.214 139.545 256.303 139.634 256.392C153.969 270.817 161.182 289.872 161.093 308.838C161.093 326.646 154.593 344.543 141.771 358.701C138.832 356.742 134.825 358.077 133.668 361.461L130.908 369.831C129.483 374.016 133.312 377.845 137.318 376.776L145.777 374.461C149.25 373.571 150.764 369.564 148.983 366.536C149.428 365.913 149.784 365.468 150.229 365.112ZM66.4416 226.029C61.9895 204.481 59.3183 179.817 57.8936 157.022C56.4689 135.207 56.0237 113.036 55.9347 91.5766C55.7566 89.2615 57.1813 87.1245 59.4073 86.2341C103.661 69.5834 152.099 52.1313 200.004 52.1313C210.867 52.1313 224.401 53.645 235.62 55.3368C232.86 62.6382 230.99 70.5628 230.367 78.8437C230.1 81.782 232.326 84.3642 235.264 84.5423C238.202 84.8095 240.785 82.5834 240.963 79.6451C244.524 34.9463 286.641 3.42565 330.716 12.9531C330.449 16.4257 333.655 19.275 337.127 18.5627L345.853 16.6928C349.949 15.8914 351.552 10.8161 348.614 7.78868L342.737 1.64482C340.244 -0.937379 335.881 -0.403131 334.189 2.71332C297.415 -5.74561 261.709 10.8161 243.189 40.0216C202.586 33.2545 164.209 36.0148 123.695 47.4121C98.3184 54.5354 71.2498 64.508 39.8182 76.3505C39.9072 128.529 41.8661 187.118 51.2155 231.282C24.414 243.659 4.55782 269.748 2.06466 301.714C1.79753 304.653 4.02357 307.235 6.96193 307.502C9.9003 307.769 12.4825 305.543 12.7496 302.605C16.3113 257.906 58.5169 226.474 102.503 235.913C102.236 239.385 105.442 242.235 108.914 241.522L117.64 239.652C121.736 238.762 123.339 233.776 120.401 230.748L114.524 224.604C112.031 222.022 107.668 222.556 105.976 225.762C92.3526 222.646 78.9074 222.913 66.4416 226.029ZM367.847 33.0764C365.799 30.9394 365.799 27.6449 367.847 25.5969C369.895 23.46 373.278 23.549 375.326 25.5969C390.73 41.0901 398.922 61.0354 399.901 81.3368C400.881 101.816 394.559 122.563 380.847 139.303C378.977 141.618 375.593 141.885 373.367 140.104C371.052 138.234 370.785 134.851 372.566 132.625C384.586 117.933 390.107 99.7684 389.217 81.8711C388.415 64.0628 381.292 46.6107 367.847 33.0764ZM334.99 157.823C337.84 157.022 340.778 158.803 341.49 161.652C342.203 164.501 340.511 167.44 337.662 168.152C309.257 175.632 277.47 167.796 255.922 147.138C239.983 131.912 223.956 123.631 201.517 123.631C189.497 123.631 178.01 126.392 167.504 131.823C168.661 135.118 166.346 138.769 162.784 138.947L153.88 139.392C149.695 139.659 146.846 135.118 148.983 131.467L153.613 123.364C155.483 120.159 159.846 119.803 162.25 122.563C184.688 110.899 212.558 109.652 235.353 119.981C245.326 124.433 254.319 131.111 263.223 139.57C282.189 157.467 310.059 164.412 334.99 157.823ZM289.757 193.262C291.538 196.378 289.846 200.207 286.463 201.097C284.593 252.563 237.579 290.495 186.825 281.591C183.887 281.057 182.017 278.296 182.462 275.447C182.908 272.598 185.757 270.639 188.606 271.084C232.593 278.742 273.552 246.241 275.689 201.543C272.216 200.919 270.346 197.091 271.949 193.885L275.956 185.96C277.826 182.221 283.168 181.954 285.305 185.693L289.757 193.262Z" fill="white"/>
</svg>
