<svg width="400" height="392" viewBox="0 0 400 392" fill="none" xmlns="http://www.w3.org/2000/svg">
<path d="M343.689 289.65C357.332 281.132 366.438 265.991 366.438 248.759C366.438 222.199 344.827 200.584 318.267 200.584C291.706 200.584 270.091 222.195 270.091 248.759C270.091 266.004 279.205 281.154 292.861 289.667C281.308 293.453 270.649 299.79 261.758 308.285C261.011 307.684 260.256 307.092 259.487 306.517C259.329 306.362 259.161 306.216 258.981 306.079C258.779 305.929 258.573 305.8 258.358 305.68C253.087 301.812 247.42 298.455 241.427 295.677C241.088 295.475 240.732 295.312 240.362 295.188C236.387 293.402 232.266 291.878 228.033 290.624C245.741 280.746 257.753 261.831 257.753 240.156C257.753 208.311 231.845 182.403 200 182.403C168.155 182.403 142.247 208.311 142.247 240.156C142.247 261.831 154.259 280.75 171.967 290.624C167.73 291.878 163.613 293.406 159.633 295.192C159.264 295.316 158.912 295.48 158.573 295.677C152.58 298.455 146.913 301.812 141.637 305.68C141.427 305.8 141.217 305.929 141.019 306.079C140.839 306.216 140.671 306.362 140.513 306.517C139.731 307.105 138.963 307.71 138.199 308.324C129.312 299.828 118.653 293.488 107.105 289.701C120.756 281.193 129.862 266.051 129.862 248.815C129.862 222.263 108.26 200.661 81.7077 200.661C55.1558 200.661 33.5537 222.263 33.5537 248.815C33.5537 266.038 42.6505 281.175 56.2849 289.684C23.6413 300.399 0 331.154 0 367.335C0 370.465 2.53713 373.002 5.6667 373.002H101.897C101.382 377.08 101.116 381.236 101.116 385.451C101.116 388.581 103.653 391.118 106.783 391.118H182.128C182.128 391.118 182.146 391.118 182.154 391.118C182.159 391.118 182.167 391.118 182.171 391.118H217.829C217.829 391.118 217.842 391.118 217.846 391.118C217.854 391.118 217.863 391.118 217.872 391.118H293.217C296.347 391.118 298.884 388.581 298.884 385.451C298.884 381.236 298.618 377.08 298.103 373.002H394.333C397.463 373.002 400 370.465 400 367.335C400 331.137 376.346 300.365 343.689 289.65ZM281.424 248.759C281.424 228.445 297.948 211.922 318.262 211.922C338.576 211.922 355.1 228.445 355.1 248.759C355.1 269.074 338.598 285.571 318.305 285.597C318.292 285.597 318.275 285.597 318.262 285.597C318.249 285.597 318.236 285.597 318.224 285.597C297.931 285.576 281.424 269.061 281.424 248.759ZM201.996 347.892L210.479 379.785H189.525L198.008 347.892C198.528 345.939 197.969 343.857 196.54 342.427L192.08 337.967L200.004 331.532L207.929 337.967L203.469 342.427C202.039 343.857 201.477 345.939 201.996 347.892ZM161.14 307.01L190.216 324.873L172.881 338.946L152.524 311.922C155.293 310.127 158.17 308.487 161.14 307.01ZM209.784 324.873L238.86 307.01C241.831 308.487 244.707 310.127 247.476 311.922L227.119 338.946L209.784 324.873ZM153.585 240.148C153.585 214.553 174.405 193.732 200 193.732C225.595 193.732 246.415 214.553 246.415 240.148C246.415 265.742 225.616 286.542 200.039 286.563C200.026 286.563 200.009 286.563 199.996 286.563C199.983 286.563 199.97 286.563 199.957 286.563C174.384 286.542 153.585 265.729 153.585 240.148ZM200 297.901C200 297.901 200.026 297.901 200.043 297.901C208.981 297.905 217.61 299.262 225.741 301.764L200 317.58L174.259 301.764C182.39 299.257 191.019 297.905 199.957 297.901C199.97 297.901 199.987 297.901 200 297.901ZM44.8871 248.811C44.8871 228.509 61.4021 211.99 81.7077 211.99C102.013 211.99 118.528 228.505 118.528 248.811C118.528 269.117 102.035 285.606 81.7507 285.627C81.7378 285.627 81.7249 285.627 81.7077 285.627C81.6949 285.627 81.682 285.627 81.6648 285.627C61.3806 285.606 44.8871 269.095 44.8871 248.811ZM11.5609 361.668C14.4587 325.517 44.7927 296.982 81.6734 296.965C81.6863 296.965 81.6949 296.965 81.7077 296.965C81.7206 296.965 81.7335 296.965 81.7464 296.965C99.5836 296.973 116.79 303.825 129.754 315.927C117.417 328.394 108.363 344.11 104.014 361.668H11.5609ZM143.427 318.692L167.365 350.468C168.292 351.696 169.675 352.499 171.203 352.683C171.43 352.709 171.662 352.726 171.89 352.726C173.182 352.726 174.448 352.284 175.462 351.46L183.223 345.158L186.207 348.141L177.788 379.789H112.63C114.197 355.358 125.835 333.622 143.423 318.696L143.427 318.692ZM222.207 379.785L213.789 348.137L216.773 345.153L224.534 351.455C225.552 352.28 226.814 352.722 228.106 352.722C228.333 352.722 228.565 352.709 228.793 352.679C230.321 352.494 231.708 351.691 232.631 350.464L256.568 318.687C274.156 333.614 285.795 355.349 287.362 379.78H222.203L222.207 379.785ZM295.986 361.668C291.629 344.093 282.562 328.359 270.207 315.888C283.176 303.791 300.386 296.943 318.224 296.935C318.236 296.935 318.249 296.935 318.267 296.935C318.275 296.935 318.288 296.935 318.297 296.935C355.194 296.952 385.546 325.5 388.443 361.668H295.986ZM125.006 101.155C125.487 101.928 125.607 102.602 125.419 103.494L121.177 123.44C119.627 130.72 123.8 137.95 130.883 140.246L150.275 146.548C151.138 146.828 151.666 147.27 152.091 148.072L161.664 166.077C165.158 172.65 173.002 175.509 179.905 172.714L198.811 165.077C199.652 164.738 200.343 164.738 201.185 165.077L220.091 172.714C221.877 173.435 223.723 173.779 225.543 173.779C230.759 173.779 235.739 170.95 238.332 166.077L247.905 148.072C248.33 147.27 248.858 146.828 249.725 146.548L269.117 140.246C276.196 137.945 280.368 130.72 278.823 123.44L274.581 103.494C274.393 102.606 274.513 101.928 274.994 101.159L285.799 83.8671C289.744 77.5522 288.293 69.3355 282.429 64.7506L266.36 52.198C265.644 51.6399 265.3 51.0432 265.176 50.1417L262.338 29.9519C261.303 22.5809 254.894 17.2061 247.467 17.4766L227.089 18.1892C226.187 18.2193 225.534 17.9875 224.856 17.3779L209.702 3.73487C204.168 -1.24496 195.823 -1.24496 190.294 3.73487L175.14 17.3779C174.466 17.9875 173.817 18.2193 172.911 18.1892L152.533 17.4766C145.106 17.2233 138.701 22.5809 137.662 29.9519L134.824 50.1417C134.7 51.0432 134.352 51.6356 133.635 52.198L117.567 64.7506C111.698 69.3355 110.252 77.5522 114.197 83.8671L125.002 101.159L125.006 101.155ZM124.551 73.6799L140.62 61.1273C143.642 58.7662 145.518 55.5122 146.055 51.7172L148.892 31.5274C149.124 29.8918 150.477 28.7671 152.142 28.8014L172.521 29.514C176.35 29.6471 179.883 28.3635 182.734 25.7963L197.888 12.1533C199.116 11.0458 200.897 11.0458 202.125 12.1533L217.279 25.7963C220.13 28.3635 223.658 29.6471 227.492 29.514L247.871 28.8014C249.515 28.7542 250.889 29.8918 251.116 31.5274L253.954 51.7172C254.486 55.5164 256.366 58.7662 259.389 61.1273L275.457 73.6799C276.758 74.6973 277.067 76.4532 276.191 77.8527L265.386 95.1447C263.355 98.3944 262.703 102.095 263.501 105.847L267.743 125.792C268.086 127.406 267.193 128.952 265.622 129.463L246.231 135.765C242.586 136.949 239.706 139.362 237.907 142.749L228.333 160.754C227.556 162.213 225.882 162.823 224.35 162.205L205.443 154.568C203.666 153.851 201.837 153.49 200.009 153.49C198.18 153.49 196.351 153.851 194.574 154.568L175.668 162.205C174.135 162.827 172.461 162.213 171.684 160.754L162.11 142.749C160.312 139.362 157.431 136.949 153.786 135.765L134.395 129.463C132.824 128.952 131.931 127.406 132.274 125.792L136.516 105.847C137.314 102.099 136.662 98.3987 134.631 95.1447L123.826 77.8527C122.95 76.4489 123.259 74.6931 124.56 73.6756L124.551 73.6799ZM200 135.584C226.852 135.584 248.699 113.737 248.699 86.885C248.699 60.0326 226.852 38.1858 200 38.1858C173.148 38.1858 151.301 60.0326 151.301 86.885C151.301 113.737 173.148 135.584 200 135.584ZM200 49.5235C220.602 49.5235 237.362 66.2832 237.362 86.885C237.362 107.487 220.602 124.247 200 124.247C179.398 124.247 162.638 107.487 162.638 86.885C162.638 66.2832 179.398 49.5235 200 49.5235ZM178.686 89.4222C176.749 86.9623 177.179 83.3992 179.639 81.463C182.098 79.5269 185.662 79.9562 187.598 82.4161L193.956 90.504L212.746 70.7178C214.901 68.4468 218.49 68.3524 220.761 70.5117C223.032 72.6668 223.122 76.2557 220.967 78.5224L197.665 103.065C196.591 104.194 195.106 104.83 193.556 104.83C193.466 104.83 193.38 104.83 193.29 104.825C191.646 104.748 190.118 103.962 189.1 102.666L178.69 89.4265L178.686 89.4222Z" fill="white"/>
</svg>
