<svg width="400" height="354" viewBox="0 0 400 354" fill="none" xmlns="http://www.w3.org/2000/svg">
<path d="M33.5257 34.1116C37.4867 34.1116 40.6977 30.9006 40.6977 26.9395C40.6977 22.9785 37.4867 19.7675 33.5257 19.7675C29.5646 19.7675 26.3536 22.9785 26.3536 26.9395C26.3536 30.9006 29.5646 34.1116 33.5257 34.1116Z" fill="white"/>
<path d="M56.7815 34.1116C60.7425 34.1116 63.9536 30.9006 63.9536 26.9395C63.9536 22.9785 60.7425 19.7675 56.7815 19.7675C52.8204 19.7675 49.6094 22.9785 49.6094 26.9395C49.6094 30.9006 52.8204 34.1116 56.7815 34.1116Z" fill="white"/>
<path d="M80.0373 34.1116C83.9983 34.1116 87.2094 30.9006 87.2094 26.9395C87.2094 22.9785 83.9983 19.7675 80.0373 19.7675C76.0762 19.7675 72.8652 22.9785 72.8652 26.9395C72.8652 30.9006 76.0762 34.1116 80.0373 34.1116Z" fill="white"/>
<path d="M201.939 72.8976C188.47 72.8976 177.549 83.8185 177.549 97.2883C177.549 110.758 188.47 121.679 201.939 121.679C215.409 121.679 226.33 110.758 226.33 97.2883C226.325 83.8185 215.409 72.8976 201.939 72.8976ZM201.939 109.037H190.191C190.191 109.037 190.191 106.935 191.214 104.893C191.977 103.367 195.018 102.47 199.107 100.935V97.6929C199.107 97.6929 197.856 96.7162 197.856 94.6743C197.344 94.6743 196.832 92.6325 197.856 92.1208C197.856 91.7069 195.814 87.0139 198.879 87.0139C199.391 84.972 206.544 84.972 207.051 87.5255C207.4 89.2604 206.028 91.8185 206.028 92.1208C207.051 92.6325 206.539 94.6743 206.028 94.6743C206.028 96.7162 204.777 97.8697 204.777 97.8697V100.935C208.865 102.47 211.907 103.367 212.67 104.893C213.693 106.935 213.693 109.037 213.693 109.037H201.939Z" fill="white"/>
<path d="M255.451 159.302H140.233C138.949 159.302 137.907 158.26 137.907 156.977C137.907 155.693 138.949 154.651 140.233 154.651H255.447C256.73 154.651 257.772 155.693 257.772 156.977C257.772 158.26 256.735 159.302 255.451 159.302Z" fill="white"/>
<path d="M255.451 177.907H140.233C138.949 177.907 137.907 176.865 137.907 175.581C137.907 174.298 138.949 173.256 140.233 173.256H255.447C256.73 173.256 257.772 174.298 257.772 175.581C257.772 176.865 256.735 177.907 255.451 177.907Z" fill="white"/>
<path d="M110.079 318.605H39.0511C37.7674 318.605 36.7256 317.563 36.7256 316.279C36.7256 314.995 37.7674 313.953 39.0511 313.953H110.079C111.363 313.953 112.405 314.995 112.405 316.279C112.405 317.563 111.363 318.605 110.079 318.605Z" fill="white"/>
<path d="M87.2093 332.558H39.0511C37.7674 332.558 36.7256 331.516 36.7256 330.233C36.7256 328.949 37.7674 327.907 39.0511 327.907H87.2093C88.493 327.907 89.5349 328.949 89.5349 330.233C89.5349 331.516 88.493 332.558 87.2093 332.558Z" fill="white"/>
<path d="M231.009 318.605H159.981C158.698 318.605 157.656 317.563 157.656 316.279C157.656 314.995 158.698 313.953 159.981 313.953H231.009C232.293 313.953 233.335 314.995 233.335 316.279C233.335 317.563 232.293 318.605 231.009 318.605Z" fill="white"/>
<path d="M208.14 332.558H159.981C158.698 332.558 157.656 331.516 157.656 330.233C157.656 328.949 158.698 327.907 159.981 327.907H208.14C209.423 327.907 210.465 328.949 210.465 330.233C210.465 331.516 209.423 332.558 208.14 332.558Z" fill="white"/>
<path d="M361.242 318.605H290.214C288.93 318.605 287.888 317.563 287.888 316.279C287.888 314.995 288.93 313.953 290.214 313.953H361.242C362.526 313.953 363.567 314.995 363.567 316.279C363.567 317.563 362.526 318.605 361.242 318.605Z" fill="white"/>
<path d="M338.372 332.558H290.214C288.93 332.558 287.888 331.516 287.888 330.233C287.888 328.949 288.93 327.907 290.214 327.907H338.372C339.656 327.907 340.698 328.949 340.698 330.233C340.698 331.516 339.656 332.558 338.372 332.558Z" fill="white"/>
<path d="M238.754 144.186H159.684C157.112 144.186 155.033 142.102 155.033 139.535C155.033 136.967 157.112 134.884 159.684 134.884H238.754C241.326 134.884 243.405 136.967 243.405 139.535C243.405 142.102 241.326 144.186 238.754 144.186Z" fill="white"/>
<path d="M400 353.488H0V46.5116H400V353.488ZM9.30233 344.186H390.698V55.8139H9.30233V344.186Z" fill="white"/>
<path d="M400 55.814H0V13.0046C0 4.97209 8.14884 0 15.6977 0H384.302C391.851 0 400 4.97209 400 13.0046V55.814ZM9.30233 46.5116H390.698V13.0046C390.698 11.1721 387.47 9.30233 384.302 9.30233H15.6977C12.5302 9.30233 9.30233 11.1721 9.30233 13.0046V46.5116Z" fill="white"/>
<path d="M112.405 298.851H33.3348V220.86H112.405V298.851ZM37.986 294.2H107.753V225.512H37.986V294.2Z" fill="white"/>
<path d="M237.986 298.851H158.916V220.86H237.986V298.851ZM163.567 294.2H233.335V225.512H163.567V294.2Z" fill="white"/>
<path d="M363.567 298.851H284.498V220.86H363.567V298.851ZM289.149 294.2H358.916V225.512H289.149V294.2Z" fill="white"/>
<path d="M182.2 99.6139H4.65116V104.265H182.2V99.6139Z" fill="white"/>
<path d="M395.349 192.67H3.08384V197.321H395.349V192.67Z" fill="white"/>
<path d="M393.023 99.6139H218.335V104.265H393.023V99.6139Z" fill="white"/>
</svg>
