<svg width="300" height="310" viewBox="0 0 300 310" fill="none" xmlns="http://www.w3.org/2000/svg">
<path d="M274.168 46.8704H212.624V38.3036C212.624 36.4795 211.652 34.7987 210.072 33.8847L181.312 17.2933L152.548 0.682593C150.972 -0.227531 149.024 -0.227531 147.448 0.682593L118.688 17.2933L89.9241 33.8886C88.3439 34.7987 87.3719 36.4834 87.3719 38.3075V46.8743H25.8281C11.5876 46.8743 0 58.4619 0 72.7024V235.711C0 249.952 11.5876 261.54 25.8281 261.54H115.551L110.973 284.293H94.405C86.0009 284.293 77.4186 290.799 74.8741 299.091L73.5922 303.208C73.112 304.757 73.3947 306.442 74.3552 307.747C75.3156 309.052 76.8415 309.823 78.4643 309.823H221.54C223.162 309.823 224.684 309.052 225.649 307.747C226.609 306.442 226.892 304.757 226.412 303.208L225.137 299.11C222.585 290.803 214.007 284.293 205.599 284.293H189.015L184.449 261.54H274.172C288.412 261.54 300 249.952 300 235.711V72.6985C300 58.458 288.412 46.8704 274.172 46.8704H274.168ZM97.573 47.1376L144.899 74.4684V129.103L123.788 116.923L97.573 101.784V47.1376ZM155.101 74.4684L202.427 47.1376V101.788L176.215 116.927L155.101 129.107V74.4723V74.4684ZM123.788 26.1234L150 10.9844L176.215 26.1234L197.326 38.2997L150.004 65.6306L102.677 38.2997L123.788 26.1234ZM25.832 57.0677H87.3757V104.727C87.3757 106.547 88.3478 108.232 89.9241 109.142L118.688 125.757L147.452 142.348C148.242 142.801 149.121 143.03 150 143.03C150.879 143.03 151.758 142.801 152.548 142.348L181.312 125.753L210.076 109.142C211.652 108.232 212.624 106.547 212.624 104.727V57.0677H274.168C282.785 57.0677 289.795 64.0775 289.795 72.6947V221.215H10.1973V72.6985C10.1973 64.0814 17.2071 57.0715 25.8243 57.0715L25.832 57.0677ZM214.162 299.614H85.8421C87.8095 296.721 91.3454 294.482 94.4089 294.482H205.595C208.655 294.482 212.19 296.717 214.162 299.614ZM178.613 284.285H121.38L125.957 261.532H174.047L178.613 284.285ZM274.176 251.335H25.8243C17.2071 251.335 10.1973 244.325 10.1973 235.707V231.416H289.795V235.707C289.795 244.325 282.785 251.335 274.168 251.335H274.176ZM16.8973 205.573V72.6985C16.8973 67.7761 20.9019 63.7716 25.8243 63.7716H75.2614C78.077 63.7716 80.362 66.0566 80.362 68.8721C80.362 71.6877 78.077 73.9727 75.2614 73.9727H27.0946V204.322H272.89V73.9727H224.723C221.907 73.9727 219.622 71.6877 219.622 68.8721C219.622 66.0566 221.907 63.7716 224.723 63.7716H274.16C279.083 63.7716 283.087 67.7761 283.087 72.6985V205.573C283.087 210.422 278.997 214.519 274.16 214.519H25.8243C20.9019 214.519 16.8973 210.507 16.8973 205.573ZM84.4246 241.377C84.4246 244.193 82.1396 246.478 79.3241 246.478H75.4047C72.5891 246.478 70.3041 244.193 70.3041 241.377C70.3041 238.562 72.5891 236.277 75.4047 236.277H79.3241C82.1396 236.277 84.4246 238.562 84.4246 241.377ZM66.2957 241.377C66.2957 244.193 64.0107 246.478 61.1952 246.478H31.7265C28.9109 246.478 26.626 244.193 26.626 241.377C26.626 238.562 28.9109 236.277 31.7265 236.277H61.1952C64.0107 236.277 66.2957 238.562 66.2957 241.377ZM149.996 197.095C157.296 197.095 163.237 191.251 163.237 184.067C163.237 178.66 159.872 174.017 155.093 172.049V156.515C155.093 153.7 152.808 151.415 149.992 151.415C147.177 151.415 144.892 153.7 144.892 156.515V172.049C140.113 174.017 136.747 178.664 136.747 184.067C136.747 191.251 142.692 197.095 149.996 197.095ZM149.996 186.894C148.319 186.894 146.952 185.627 146.952 184.067C146.952 182.506 148.319 181.239 149.996 181.239C151.673 181.239 153.04 182.506 153.04 184.067C153.04 185.627 151.673 186.894 149.996 186.894ZM181.467 156.689L191.641 162.549V172.049C186.862 174.017 183.496 178.664 183.496 184.067C183.496 191.251 189.437 197.095 196.738 197.095C204.038 197.095 209.979 191.251 209.979 184.067C209.979 178.66 206.614 174.017 201.834 172.049V159.602C201.834 157.778 200.858 156.093 199.278 155.183L189.104 149.323V137.647C189.104 134.831 186.819 132.546 184.004 132.546C181.188 132.546 178.903 134.831 178.903 137.647V152.27C178.903 154.095 179.879 155.779 181.459 156.689H181.467ZM196.742 186.894C195.065 186.894 193.698 185.627 193.698 184.067C193.698 182.506 195.061 181.239 196.742 181.239C198.422 181.239 199.786 182.506 199.786 184.067C199.786 185.627 198.419 186.894 196.742 186.894ZM103.247 197.095C110.547 197.095 116.488 191.251 116.488 184.067C116.488 178.66 113.123 174.017 108.343 172.049V162.549L118.502 156.689C120.082 155.779 121.054 154.095 121.054 152.27V137.647C121.054 134.831 118.769 132.546 115.954 132.546C113.138 132.546 110.853 134.831 110.853 137.647V149.327L100.695 155.187C99.1144 156.097 98.1423 157.782 98.1423 159.606V172.053C93.3632 174.02 89.9977 178.668 89.9977 184.071C89.9977 191.255 95.9386 197.099 103.239 197.099L103.247 197.095ZM103.247 186.894C101.57 186.894 100.203 185.627 100.203 184.067C100.203 182.506 101.57 181.239 103.247 181.239C104.924 181.239 106.291 182.506 106.291 184.067C106.291 185.627 104.924 186.894 103.247 186.894Z" fill="white"/>
</svg>
