<svg width="462" height="90" viewBox="0 0 734 143" fill="none" xmlns="http://www.w3.org/2000/svg">
<path d="M221.463 30.918H229.693H237.923L248 17.119L239.602 3H204.332L212.898 17.119L221.463 30.918Z" fill="#FE9886"/>
<path d="M187.537 3L170.435 30.504L187.537 30.918H204.332L212.898 17.119L204.332 3H187.537Z" fill="#FF6038"/>
<path d="M239.602 89L248 74.56L239.602 61.082H221.463L212.898 75.041L204.332 89H239.602Z" fill="#900000"/>
<path d="M187.537 89H204.332L212.898 75.041L204.332 61.082H187.384H170.435L187.537 89Z" fill="#D00808"/>
<path d="M161 45.679L170.435 61.082H187.384L195.598 45.679L187.537 30.918L170.435 30.504L161 45.679Z" fill="url(#paint0_linear_432_3)"/>
<path d="M587.463 30.918H595.693H603.923L614 17.119L605.602 3H570.332L578.898 17.119L587.463 30.918Z" fill="#FE9886"/>
<path d="M553.537 3L536.435 30.504L553.537 30.918H570.332L578.898 17.119L570.332 3H553.537Z" fill="#FF6038"/>
<path d="M605.602 89L614 74.56L605.602 61.082H587.463L578.898 75.041L570.332 89H605.602Z" fill="#900000"/>
<path d="M553.537 89H570.332L578.898 75.041L570.332 61.082H553.384H536.435L553.537 89Z" fill="#D00808"/>
<path d="M527 45.679L536.435 61.082H553.384L561.598 45.679L553.537 30.918L536.435 30.504L527 45.679Z" fill="url(#paint1_linear_432_3)"/>
<path d="M0.984001 89V0.679993H23.256V89H0.984001ZM36.322 20.776V0.679993H109.794V20.776H84.194V89H61.922V20.776H36.322ZM111.62 59.048V40.872H151.3V59.048H111.62ZM257.329 66.472V23.208C257.329 8.18929 264.838 0.679993 279.857 0.679993H308.529C323.548 0.679993 331.057 8.18929 331.057 23.208V66.472C331.057 81.491 323.548 89 308.529 89H279.857C264.838 89 257.329 81.491 257.329 66.472ZM279.601 67.496C279.601 68.435 280.07 68.904 281.009 68.904H307.377C308.316 68.904 308.785 68.435 308.785 67.496V22.184C308.785 21.245 308.316 20.776 307.377 20.776H281.009C280.07 20.776 279.601 21.245 279.601 22.184V67.496ZM348.966 66.472V0.679993H371.238V67.496C371.238 68.435 371.707 68.904 372.646 68.904H396.454C397.393 68.904 397.862 68.435 397.862 67.496V0.679993H420.134V66.472C420.134 81.491 412.625 89 397.606 89H371.494C356.475 89 348.966 81.491 348.966 66.472ZM439.359 89V0.679993H463.423L492.735 51.88V0.679993H515.007V89H491.071L461.631 37.8V89H439.359ZM627.234 89V0.679993H649.506V89H627.234ZM669.484 89V0.679993H691.756V68.904H727.468V89H669.484Z" fill="white"/>
<path d="M163.797 142V116.545H173.118C174.925 116.545 176.42 116.844 177.605 117.44C178.79 118.029 179.677 118.828 180.265 119.839C180.853 120.842 181.147 121.973 181.147 123.232C181.147 124.293 180.953 125.188 180.563 125.917C180.174 126.638 179.652 127.218 178.997 127.657C178.351 128.088 177.638 128.403 176.859 128.602V128.85C177.705 128.892 178.529 129.165 179.333 129.67C180.145 130.168 180.816 130.876 181.346 131.796C181.877 132.716 182.142 133.834 182.142 135.152C182.142 136.453 181.835 137.621 181.222 138.657C180.617 139.684 179.681 140.5 178.413 141.105C177.145 141.702 175.525 142 173.553 142H163.797ZM167.637 138.706H173.18C175.02 138.706 176.337 138.35 177.133 137.637C177.928 136.925 178.326 136.034 178.326 134.965C178.326 134.161 178.123 133.424 177.717 132.753C177.311 132.082 176.731 131.547 175.977 131.15C175.231 130.752 174.345 130.553 173.317 130.553H167.637V138.706ZM167.637 127.558H172.783C173.644 127.558 174.419 127.392 175.107 127.06C175.803 126.729 176.354 126.265 176.76 125.668C177.174 125.063 177.381 124.351 177.381 123.531C177.381 122.478 177.013 121.596 176.275 120.883C175.538 120.171 174.407 119.814 172.882 119.814H167.637V127.558ZM204.816 116.545H208.669V133.287C208.669 135.069 208.25 136.647 207.414 138.023C206.577 139.39 205.4 140.467 203.884 141.254C202.367 142.033 200.59 142.423 198.552 142.423C196.522 142.423 194.748 142.033 193.232 141.254C191.716 140.467 190.539 139.39 189.702 138.023C188.865 136.647 188.447 135.069 188.447 133.287V116.545H192.287V132.977C192.287 134.128 192.54 135.152 193.046 136.047C193.559 136.941 194.284 137.646 195.221 138.159C196.157 138.665 197.267 138.918 198.552 138.918C199.844 138.918 200.959 138.665 201.895 138.159C202.84 137.646 203.561 136.941 204.058 136.047C204.563 135.152 204.816 134.128 204.816 132.977V116.545ZM219.843 116.545V142H216.003V116.545H219.843ZM227.186 142V116.545H231.027V138.694H242.561V142H227.186ZM256.932 142H248.692V116.545H257.193C259.688 116.545 261.829 117.055 263.619 118.074C265.409 119.085 266.78 120.539 267.733 122.437C268.694 124.326 269.175 126.592 269.175 129.235C269.175 131.887 268.69 134.166 267.721 136.071C266.76 137.977 265.368 139.444 263.545 140.471C261.722 141.49 259.518 142 256.932 142ZM252.533 138.644H256.721C258.66 138.644 260.272 138.28 261.556 137.55C262.84 136.813 263.802 135.748 264.44 134.356C265.078 132.956 265.397 131.249 265.397 129.235C265.397 127.239 265.078 125.544 264.44 124.152C263.81 122.76 262.869 121.703 261.618 120.983C260.367 120.262 258.813 119.901 256.957 119.901H252.533V138.644ZM279.541 116.545V142H275.701V116.545H279.541ZM307.43 116.545V142H303.9L290.961 123.332H290.725V142H286.884V116.545H290.439L303.39 135.239H303.626V116.545H307.43ZM332.008 124.587C331.768 123.833 331.445 123.158 331.039 122.561C330.641 121.956 330.165 121.442 329.61 121.02C329.054 120.589 328.421 120.262 327.708 120.038C327.004 119.814 326.229 119.702 325.384 119.702C323.95 119.702 322.658 120.071 321.506 120.809C320.354 121.546 319.443 122.627 318.772 124.053C318.109 125.469 317.777 127.205 317.777 129.26C317.777 131.324 318.113 133.068 318.784 134.493C319.455 135.918 320.375 136.999 321.543 137.737C322.712 138.474 324.041 138.843 325.533 138.843C326.917 138.843 328.122 138.561 329.15 137.998C330.186 137.434 330.985 136.639 331.549 135.612C332.12 134.576 332.406 133.358 332.406 131.957L333.4 132.144H326.117V128.974H336.122V131.87C336.122 134.008 335.667 135.864 334.755 137.439C333.852 139.005 332.601 140.214 331.002 141.068C329.411 141.921 327.588 142.348 325.533 142.348C323.229 142.348 321.208 141.818 319.468 140.757C317.736 139.696 316.385 138.193 315.416 136.245C314.446 134.29 313.962 131.97 313.962 129.285C313.962 127.255 314.243 125.432 314.807 123.816C315.37 122.201 316.161 120.829 317.181 119.702C318.208 118.567 319.414 117.701 320.797 117.105C322.19 116.5 323.71 116.197 325.359 116.197C326.734 116.197 328.015 116.4 329.199 116.806C330.393 117.212 331.453 117.788 332.381 118.534C333.318 119.28 334.092 120.166 334.706 121.194C335.319 122.213 335.733 123.344 335.948 124.587H332.008ZM353.76 142V116.545H369.545V119.852H357.601V127.607H368.414V130.901H357.601V142H353.76ZM398.129 129.273C398.129 131.991 397.632 134.327 396.638 136.283C395.644 138.23 394.281 139.73 392.549 140.782C390.825 141.826 388.866 142.348 386.67 142.348C384.466 142.348 382.498 141.826 380.766 140.782C379.043 139.73 377.684 138.226 376.689 136.27C375.695 134.315 375.198 131.982 375.198 129.273C375.198 126.555 375.695 124.222 376.689 122.275C377.684 120.32 379.043 118.82 380.766 117.776C382.498 116.724 384.466 116.197 386.67 116.197C388.866 116.197 390.825 116.724 392.549 117.776C394.281 118.82 395.644 120.32 396.638 122.275C397.632 124.222 398.129 126.555 398.129 129.273ZM394.326 129.273C394.326 127.201 393.991 125.457 393.319 124.04C392.656 122.615 391.745 121.538 390.585 120.809C389.433 120.071 388.128 119.702 386.67 119.702C385.203 119.702 383.894 120.071 382.742 120.809C381.591 121.538 380.679 122.615 380.008 124.04C379.345 125.457 379.014 127.201 379.014 129.273C379.014 131.344 379.345 133.093 380.008 134.518C380.679 135.935 381.591 137.012 382.742 137.749C383.894 138.478 385.203 138.843 386.67 138.843C388.128 138.843 389.433 138.478 390.585 137.749C391.745 137.012 392.656 135.935 393.319 134.518C393.991 133.093 394.326 131.344 394.326 129.273ZM404.668 142V116.545H413.741C415.713 116.545 417.349 116.885 418.65 117.565C419.959 118.244 420.937 119.185 421.583 120.386C422.23 121.579 422.553 122.959 422.553 124.525C422.553 126.083 422.226 127.454 421.571 128.639C420.925 129.815 419.947 130.731 418.638 131.386C417.337 132.04 415.7 132.368 413.728 132.368H406.855V129.061H413.38C414.623 129.061 415.634 128.883 416.413 128.527C417.2 128.171 417.776 127.653 418.141 126.973C418.505 126.294 418.688 125.478 418.688 124.525C418.688 123.564 418.501 122.731 418.128 122.027C417.764 121.322 417.188 120.784 416.401 120.411C415.622 120.03 414.598 119.839 413.331 119.839H408.508V142H404.668ZM417.233 130.516L423.522 142H419.147L412.983 130.516H417.233ZM439.989 142V116.545H455.774V119.852H443.829V127.607H454.643V130.901H443.829V142H439.989ZM478.616 116.545H482.469V133.287C482.469 135.069 482.05 136.647 481.213 138.023C480.376 139.39 479.2 140.467 477.684 141.254C476.167 142.033 474.39 142.423 472.351 142.423C470.321 142.423 468.548 142.033 467.032 141.254C465.516 140.467 464.339 139.39 463.502 138.023C462.665 136.647 462.247 135.069 462.247 133.287V116.545H466.087V132.977C466.087 134.128 466.34 135.152 466.845 136.047C467.359 136.941 468.084 137.646 469.021 138.159C469.957 138.665 471.067 138.918 472.351 138.918C473.644 138.918 474.759 138.665 475.695 138.159C476.639 137.646 477.36 136.941 477.858 136.047C478.363 135.152 478.616 134.128 478.616 132.977V116.545ZM488.547 119.852V116.545H508.247V119.852H500.305V142H496.477V119.852H488.547ZM530.719 116.545H534.572V133.287C534.572 135.069 534.154 136.647 533.317 138.023C532.48 139.39 531.303 140.467 529.787 141.254C528.271 142.033 526.493 142.423 524.455 142.423C522.425 142.423 520.652 142.033 519.135 141.254C517.619 140.467 516.442 139.39 515.606 138.023C514.769 136.647 514.35 135.069 514.35 133.287V116.545H518.191V132.977C518.191 134.128 518.444 135.152 518.949 136.047C519.463 136.941 520.188 137.646 521.124 138.159C522.06 138.665 523.171 138.918 524.455 138.918C525.748 138.918 526.862 138.665 527.798 138.159C528.743 137.646 529.464 136.941 529.961 136.047C530.466 135.152 530.719 134.128 530.719 132.977V116.545ZM541.906 142V116.545H550.979C552.951 116.545 554.588 116.885 555.888 117.565C557.198 118.244 558.175 119.185 558.822 120.386C559.468 121.579 559.791 122.959 559.791 124.525C559.791 126.083 559.464 127.454 558.809 128.639C558.163 129.815 557.185 130.731 555.876 131.386C554.575 132.04 552.939 132.368 550.967 132.368H544.093V129.061H550.619C551.862 129.061 552.872 128.883 553.651 128.527C554.438 128.171 555.014 127.653 555.379 126.973C555.743 126.294 555.926 125.478 555.926 124.525C555.926 123.564 555.739 122.731 555.366 122.027C555.002 121.322 554.426 120.784 553.639 120.411C552.86 120.03 551.837 119.839 550.569 119.839H545.746V142H541.906ZM554.472 130.516L560.761 142H556.386L550.221 130.516H554.472ZM566.214 142V116.545H582.173V119.852H570.055V127.607H581.341V130.901H570.055V138.694H582.322V142H566.214Z" fill="white"/>
<path d="M150 129L-0.0019989 129.503" stroke="#FFD700" stroke-width="4"/>
<path d="M734.002 130.5H598.998" stroke="#FFD700" stroke-width="4"/>
<defs>
<linearGradient id="paint0_linear_432_3" x1="204.5" y1="2.99999" x2="204.5" y2="89" gradientUnits="userSpaceOnUse">
<stop stop-color="#EE2400"/>
<stop offset="1" stop-color="#FA2864"/>
</linearGradient>
<linearGradient id="paint1_linear_432_3" x1="570.5" y1="2.99999" x2="570.5" y2="89" gradientUnits="userSpaceOnUse">
<stop stop-color="#EE2400"/>
<stop offset="1" stop-color="#FA2864"/>
</linearGradient>
</defs>
</svg>
