<svg width="186" height="33" viewBox="0 0 186 33" fill="none" xmlns="http://www.w3.org/2000/svg">
<path d="M140.29 13.1418H142.371H144.452L147 9.61194L144.876 6H135.958L138.124 9.61194L140.29 13.1418Z" fill="#FE9886"/>
<path d="M131.71 6L127.386 13.036L131.71 13.1418H135.958L138.124 9.61194L135.958 6H131.71Z" fill="#FF6038"/>
<path d="M144.876 28L147 24.306L144.876 20.8582H140.29L138.124 24.4291L135.958 28H144.876Z" fill="#900000"/>
<path d="M131.71 28H135.958L138.124 24.4291L135.958 20.8582H131.672H127.386L131.71 28Z" fill="#D00808"/>
<path d="M125 16.9179L127.386 20.8582H131.672L133.749 16.9179L131.71 13.1418L127.386 13.036L125 16.9179Z" fill="url(#paint0_linear_402_26)"/>
<path d="M54.2896 13.1418H56.3707H58.4517L61 9.61194L58.8764 6H49.9575L52.1236 9.61194L54.2896 13.1418Z" fill="#FE9886"/>
<path d="M45.7104 6L41.3859 13.036L45.7104 13.1418H49.9575L52.1236 9.61194L49.9575 6H45.7104Z" fill="#FF6038"/>
<path d="M58.8764 28L61 24.306L58.8764 20.8582H54.2896L52.1236 24.4291L49.9575 28H58.8764Z" fill="#900000"/>
<path d="M45.7104 28H49.9575L52.1236 24.4291L49.9575 20.8582H45.6717H41.3859L45.7104 28Z" fill="#D00808"/>
<path d="M39 16.9179L41.3859 20.8582H45.6717L47.749 16.9179L45.7104 13.1418L41.3859 13.036L39 16.9179Z" fill="url(#paint1_linear_402_26)"/>
<path d="M2.34 28V7.3H7.56V28H2.34ZM10.6223 12.01V7.3H27.8423V12.01H21.8423V28H16.6223V12.01H10.6223ZM28.2703 20.98V16.72H37.5703V20.98H28.2703ZM62.4209 22.72V12.58C62.4209 9.06 64.1809 7.3 67.7009 7.3H74.4209C77.9409 7.3 79.7009 9.06 79.7009 12.58V22.72C79.7009 26.24 77.9409 28 74.4209 28H67.7009C64.1809 28 62.4209 26.24 62.4209 22.72ZM67.6409 22.96C67.6409 23.18 67.7509 23.29 67.9709 23.29H74.1509C74.3709 23.29 74.4809 23.18 74.4809 22.96V12.34C74.4809 12.12 74.3709 12.01 74.1509 12.01H67.9709C67.7509 12.01 67.6409 12.12 67.6409 12.34V22.96ZM83.8983 22.72V7.3H89.1183V22.96C89.1183 23.18 89.2283 23.29 89.4483 23.29H95.0283C95.2483 23.29 95.3583 23.18 95.3583 22.96V7.3H100.578V22.72C100.578 26.24 98.8183 28 95.2983 28H89.1783C85.6583 28 83.8983 26.24 83.8983 22.72ZM105.084 28V7.3H110.724L117.594 19.3V7.3H122.814V28H117.204L110.304 16V28H105.084ZM149.117 28V7.3H154.337V28H149.117ZM159.02 28V7.3H164.24V23.29H172.61V28H159.02Z" fill="black"/>
<defs>
<linearGradient id="paint0_linear_402_26" x1="136" y1="6" x2="136" y2="28" gradientUnits="userSpaceOnUse">
<stop stop-color="#EE2400"/>
<stop offset="1" stop-color="#FA2864"/>
</linearGradient>
<linearGradient id="paint1_linear_402_26" x1="50" y1="6" x2="50" y2="28" gradientUnits="userSpaceOnUse">
<stop stop-color="#EE2400"/>
<stop offset="1" stop-color="#FA2864"/>
</linearGradient>
</defs>
</svg>
