<svg width="400" height="90" viewBox="0 0 1000 300" fill="none" xmlns="http://www.w3.org/2000/svg">
<rect width="1000" height="300" fill="black"/>
<path d="M333.463 116.918H341.693H349.923L360 103.119L351.602 89H316.332L324.898 103.119L333.463 116.918Z" fill="#FE9886"/>
<path d="M299.537 89L282.435 116.504L299.537 116.918H316.332L324.898 103.119L316.332 89H299.537Z" fill="#FF6038"/>
<path d="M351.602 175L360 160.56L351.602 147.082H333.463L324.898 161.041L316.332 175H351.602Z" fill="#900000"/>
<path d="M299.537 175H316.332L324.898 161.041L316.332 147.082H299.384H282.435L299.537 175Z" fill="#D00808"/>
<path d="M273 131.679L282.435 147.082H299.384L307.598 131.679L299.537 116.918L282.435 116.504L273 131.679Z" fill="url(#paint0_linear_409_210)"/>
<path d="M699.463 116.918H707.693H715.923L726 103.119L717.602 89H682.332L690.898 103.119L699.463 116.918Z" fill="#FE9886"/>
<path d="M665.537 89L648.435 116.504L665.537 116.918H682.332L690.898 103.119L682.332 89H665.537Z" fill="#FF6038"/>
<path d="M717.602 175L726 160.56L717.602 147.082H699.463L690.898 161.041L682.332 175H717.602Z" fill="#900000"/>
<path d="M665.537 175H682.332L690.898 161.041L682.332 147.082H665.384H648.435L665.537 175Z" fill="#D00808"/>
<path d="M639 131.679L648.435 147.082H665.384L673.598 131.679L665.537 116.918L648.435 116.504L639 131.679Z" fill="url(#paint1_linear_409_210)"/>
<path d="M112.984 175V86.68H135.256V175H112.984ZM148.322 106.776V86.68H221.794V106.776H196.194V175H173.922V106.776H148.322ZM223.62 145.048V126.872H263.3V145.048H223.62ZM369.329 152.472V109.208C369.329 94.1893 376.838 86.68 391.857 86.68H420.529C435.548 86.68 443.057 94.1893 443.057 109.208V152.472C443.057 167.491 435.548 175 420.529 175H391.857C376.838 175 369.329 167.491 369.329 152.472ZM391.601 153.496C391.601 154.435 392.07 154.904 393.009 154.904H419.377C420.316 154.904 420.785 154.435 420.785 153.496V108.184C420.785 107.245 420.316 106.776 419.377 106.776H393.009C392.07 106.776 391.601 107.245 391.601 108.184V153.496ZM460.966 152.472V86.68H483.238V153.496C483.238 154.435 483.707 154.904 484.646 154.904H508.454C509.393 154.904 509.862 154.435 509.862 153.496V86.68H532.134V152.472C532.134 167.491 524.625 175 509.606 175H483.494C468.475 175 460.966 167.491 460.966 152.472ZM551.359 175V86.68H575.423L604.735 137.88V86.68H627.007V175H603.071L573.631 123.8V175H551.359ZM739.234 175V86.68H761.506V175H739.234ZM781.484 175V86.68H803.756V154.904H839.468V175H781.484Z" fill="white"/>
<path d="M275.797 228V202.545H285.118C286.925 202.545 288.42 202.844 289.605 203.44C290.79 204.029 291.677 204.828 292.265 205.839C292.853 206.842 293.147 207.973 293.147 209.232C293.147 210.293 292.953 211.188 292.563 211.917C292.174 212.638 291.652 213.218 290.997 213.657C290.351 214.088 289.638 214.403 288.859 214.602V214.85C289.705 214.892 290.529 215.165 291.333 215.67C292.145 216.168 292.816 216.876 293.346 217.796C293.877 218.716 294.142 219.834 294.142 221.152C294.142 222.453 293.835 223.621 293.222 224.657C292.617 225.684 291.681 226.5 290.413 227.105C289.145 227.702 287.525 228 285.553 228H275.797ZM279.637 224.706H285.18C287.02 224.706 288.337 224.35 289.133 223.637C289.928 222.925 290.326 222.034 290.326 220.965C290.326 220.161 290.123 219.424 289.717 218.753C289.311 218.082 288.731 217.547 287.977 217.15C287.231 216.752 286.345 216.553 285.317 216.553H279.637V224.706ZM279.637 213.558H284.783C285.644 213.558 286.419 213.392 287.107 213.06C287.803 212.729 288.354 212.265 288.76 211.668C289.174 211.063 289.381 210.351 289.381 209.531C289.381 208.478 289.013 207.596 288.275 206.883C287.538 206.171 286.407 205.814 284.882 205.814H279.637V213.558ZM316.816 202.545H320.669V219.287C320.669 221.069 320.25 222.647 319.414 224.023C318.577 225.39 317.4 226.467 315.884 227.254C314.367 228.033 312.59 228.423 310.552 228.423C308.522 228.423 306.748 228.033 305.232 227.254C303.716 226.467 302.539 225.39 301.702 224.023C300.865 222.647 300.447 221.069 300.447 219.287V202.545H304.287V218.977C304.287 220.128 304.54 221.152 305.046 222.047C305.559 222.941 306.284 223.646 307.221 224.159C308.157 224.665 309.267 224.918 310.552 224.918C311.844 224.918 312.959 224.665 313.895 224.159C314.84 223.646 315.561 222.941 316.058 222.047C316.563 221.152 316.816 220.128 316.816 218.977V202.545ZM331.843 202.545V228H328.003V202.545H331.843ZM339.186 228V202.545H343.027V224.694H354.561V228H339.186ZM368.932 228H360.692V202.545H369.193C371.688 202.545 373.829 203.055 375.619 204.074C377.409 205.085 378.78 206.539 379.733 208.437C380.694 210.326 381.175 212.592 381.175 215.235C381.175 217.887 380.69 220.166 379.721 222.071C378.76 223.977 377.368 225.444 375.545 226.471C373.722 227.49 371.518 228 368.932 228ZM364.533 224.644H368.721C370.66 224.644 372.272 224.28 373.556 223.55C374.84 222.813 375.802 221.748 376.44 220.356C377.078 218.956 377.397 217.249 377.397 215.235C377.397 213.239 377.078 211.544 376.44 210.152C375.81 208.76 374.869 207.703 373.618 206.983C372.367 206.262 370.813 205.901 368.957 205.901H364.533V224.644ZM391.541 202.545V228H387.701V202.545H391.541ZM419.43 202.545V228H415.9L402.961 209.332H402.725V228H398.884V202.545H402.439L415.39 221.239H415.626V202.545H419.43ZM444.008 210.587C443.768 209.833 443.445 209.158 443.039 208.561C442.641 207.956 442.165 207.442 441.61 207.02C441.054 206.589 440.421 206.262 439.708 206.038C439.004 205.814 438.229 205.702 437.384 205.702C435.95 205.702 434.658 206.071 433.506 206.809C432.354 207.546 431.443 208.627 430.772 210.053C430.109 211.469 429.777 213.205 429.777 215.26C429.777 217.324 430.113 219.068 430.784 220.493C431.455 221.918 432.375 222.999 433.543 223.737C434.712 224.474 436.041 224.843 437.533 224.843C438.917 224.843 440.122 224.561 441.15 223.998C442.186 223.434 442.985 222.639 443.549 221.612C444.12 220.576 444.406 219.358 444.406 217.957L445.4 218.144H438.117V214.974H448.122V217.87C448.122 220.008 447.667 221.864 446.755 223.439C445.852 225.005 444.601 226.214 443.002 227.068C441.411 227.921 439.588 228.348 437.533 228.348C435.229 228.348 433.208 227.818 431.468 226.757C429.736 225.696 428.385 224.193 427.416 222.245C426.446 220.29 425.962 217.97 425.962 215.285C425.962 213.255 426.243 211.432 426.807 209.816C427.37 208.201 428.161 206.829 429.181 205.702C430.208 204.567 431.414 203.701 432.797 203.105C434.19 202.5 435.71 202.197 437.359 202.197C438.734 202.197 440.015 202.4 441.199 202.806C442.393 203.212 443.453 203.788 444.381 204.534C445.318 205.28 446.092 206.166 446.706 207.194C447.319 208.213 447.733 209.344 447.948 210.587H444.008ZM465.76 228V202.545H481.545V205.852H469.601V213.607H480.414V216.901H469.601V228H465.76ZM510.129 215.273C510.129 217.991 509.632 220.327 508.638 222.283C507.644 224.23 506.281 225.73 504.549 226.782C502.825 227.826 500.866 228.348 498.67 228.348C496.466 228.348 494.498 227.826 492.766 226.782C491.043 225.73 489.684 224.226 488.689 222.27C487.695 220.315 487.198 217.982 487.198 215.273C487.198 212.555 487.695 210.222 488.689 208.275C489.684 206.32 491.043 204.82 492.766 203.776C494.498 202.724 496.466 202.197 498.67 202.197C500.866 202.197 502.825 202.724 504.549 203.776C506.281 204.82 507.644 206.32 508.638 208.275C509.632 210.222 510.129 212.555 510.129 215.273ZM506.326 215.273C506.326 213.201 505.991 211.457 505.319 210.04C504.656 208.615 503.745 207.538 502.585 206.809C501.433 206.071 500.128 205.702 498.67 205.702C497.203 205.702 495.894 206.071 494.742 206.809C493.591 207.538 492.679 208.615 492.008 210.04C491.345 211.457 491.014 213.201 491.014 215.273C491.014 217.344 491.345 219.093 492.008 220.518C492.679 221.935 493.591 223.012 494.742 223.749C495.894 224.478 497.203 224.843 498.67 224.843C500.128 224.843 501.433 224.478 502.585 223.749C503.745 223.012 504.656 221.935 505.319 220.518C505.991 219.093 506.326 217.344 506.326 215.273ZM516.668 228V202.545H525.741C527.713 202.545 529.349 202.885 530.65 203.565C531.959 204.244 532.937 205.185 533.583 206.386C534.23 207.579 534.553 208.959 534.553 210.525C534.553 212.083 534.226 213.454 533.571 214.639C532.925 215.815 531.947 216.731 530.638 217.386C529.337 218.04 527.7 218.368 525.728 218.368H518.855V215.061H525.38C526.623 215.061 527.634 214.883 528.413 214.527C529.2 214.171 529.776 213.653 530.141 212.973C530.505 212.294 530.688 211.478 530.688 210.525C530.688 209.564 530.501 208.731 530.128 208.027C529.764 207.322 529.188 206.784 528.401 206.411C527.622 206.03 526.598 205.839 525.331 205.839H520.508V228H516.668ZM529.233 216.516L535.522 228H531.147L524.983 216.516H529.233ZM551.989 228V202.545H567.774V205.852H555.829V213.607H566.643V216.901H555.829V228H551.989ZM590.616 202.545H594.469V219.287C594.469 221.069 594.05 222.647 593.213 224.023C592.376 225.39 591.2 226.467 589.684 227.254C588.167 228.033 586.39 228.423 584.351 228.423C582.321 228.423 580.548 228.033 579.032 227.254C577.516 226.467 576.339 225.39 575.502 224.023C574.665 222.647 574.247 221.069 574.247 219.287V202.545H578.087V218.977C578.087 220.128 578.34 221.152 578.845 222.047C579.359 222.941 580.084 223.646 581.021 224.159C581.957 224.665 583.067 224.918 584.351 224.918C585.644 224.918 586.759 224.665 587.695 224.159C588.639 223.646 589.36 222.941 589.858 222.047C590.363 221.152 590.616 220.128 590.616 218.977V202.545ZM600.547 205.852V202.545H620.247V205.852H612.305V228H608.477V205.852H600.547ZM642.719 202.545H646.572V219.287C646.572 221.069 646.154 222.647 645.317 224.023C644.48 225.39 643.303 226.467 641.787 227.254C640.271 228.033 638.493 228.423 636.455 228.423C634.425 228.423 632.652 228.033 631.135 227.254C629.619 226.467 628.442 225.39 627.606 224.023C626.769 222.647 626.35 221.069 626.35 219.287V202.545H630.191V218.977C630.191 220.128 630.444 221.152 630.949 222.047C631.463 222.941 632.188 223.646 633.124 224.159C634.06 224.665 635.171 224.918 636.455 224.918C637.748 224.918 638.862 224.665 639.798 224.159C640.743 223.646 641.464 222.941 641.961 222.047C642.466 221.152 642.719 220.128 642.719 218.977V202.545ZM653.906 228V202.545H662.979C664.951 202.545 666.588 202.885 667.888 203.565C669.198 204.244 670.175 205.185 670.822 206.386C671.468 207.579 671.791 208.959 671.791 210.525C671.791 212.083 671.464 213.454 670.809 214.639C670.163 215.815 669.185 216.731 667.876 217.386C666.575 218.04 664.939 218.368 662.967 218.368H656.093V215.061H662.619C663.862 215.061 664.872 214.883 665.651 214.527C666.438 214.171 667.014 213.653 667.379 212.973C667.743 212.294 667.926 211.478 667.926 210.525C667.926 209.564 667.739 208.731 667.366 208.027C667.002 207.322 666.426 206.784 665.639 206.411C664.86 206.03 663.837 205.839 662.569 205.839H657.746V228H653.906ZM666.472 216.516L672.761 228H668.386L662.221 216.516H666.472ZM678.214 228V202.545H694.173V205.852H682.055V213.607H693.341V216.901H682.055V224.694H694.322V228H678.214Z" fill="white"/>
<path d="M262 215L111.998 215.503" stroke="#FFD700" stroke-width="4"/>
<path d="M846.002 216.5H710.998" stroke="#FFD700" stroke-width="4"/>
<defs>
<linearGradient id="paint0_linear_409_210" x1="316.5" y1="89" x2="316.5" y2="175" gradientUnits="userSpaceOnUse">
<stop stop-color="#EE2400"/>
<stop offset="1" stop-color="#FA2864"/>
</linearGradient>
<linearGradient id="paint1_linear_409_210" x1="682.5" y1="89" x2="682.5" y2="175" gradientUnits="userSpaceOnUse">
<stop stop-color="#EE2400"/>
<stop offset="1" stop-color="#FA2864"/>
</linearGradient>
</defs>
</svg>
